#!OML:ASF F:\VICON\USERDATA\INSTALL\rory3\rory3.ASF
:FULLY-SPECIFIED
:DEGREES
123
root 1.80284 17.398 -30.7938 13.7509 -6.99379 -3.20497
lowerback -12.3812 2.84165 4.95341
upperback -4.96983 3.17276 0.142629
thorax 1.97137 1.53302 -2.19201
lowerneck -15.0233 -2.80751 -7.12907
upperneck 24.5207 -3.37111 4.80446
head 10.5498 -1.64745 2.46851
rclavicle 4.60901e-014 1.89839e-014
rhumerus -41.7611 4.56958 -91.6683
rradius 31.1282
rwrist 4.35986
rhand -23.8788 -47.8749
rfingers 7.12502
rthumb 2.5944 -77.8389
lclavicle 4.60901e-014 1.89839e-014
lhumerus -46.148 -0.588575 84.7385
lradius 29.5795
lwrist 9.90838
lhand -31.5038 -15.2169
lfingers 7.12502
lthumb -4.76959 14.7094
rfemur -4.18016 6.68031 25.1022
rtibia 34.794
rfoot -5.1039 5.2707
rtoes -26.5887
lfemur -39.8902 -1.25478 -20.6869
ltibia 35.2121
lfoot -8.75317 2.14984
ltoes 8.30616
124
root 1.80573 17.3986 -30.6566 13.4758 -6.72816 -2.96459
lowerback -11.8912 2.59267 4.54594
upperback -5.00307 2.91789 0.229228
thorax 1.63048 1.40419 -1.93178
lowerneck -15.6592 -2.81283 -7.22689
upperneck 24.9472 -3.32318 4.81841
head 10.8304 -1.62804 2.49945
rclavicle 5.14977e-015 1.81888e-014
rhumerus -41.9823 4.8447 -91.6531
rradius 31.0834
rwrist 4.2462
rhand -23.582 -48.1845
rfingers 7.12502
rthumb 2.88105 -78.1448
lclavicle 5.14977e-015 1.81888e-014
lhumerus -45.8787 -0.779154 84.9399
lradius 29.6669
lwrist 9.962
lhand -31.334 -15.815
lfingers 7.12502
lthumb -4.60565 14.1149
rfemur -4.97521 6.10469 24.6867
rtibia 37.107
rfoot -4.1171 6.22446
rtoes -26.3616
lfemur -39.1887 -1.27666 -21.0924
ltibia 35.3693
lfoot -9.38625 1.84445
ltoes 8.27345
125
root 1.8258 17.4038 -30.538 13.5009 -6.83206 -2.69883
lowerback -12.7344 2.47405 4.45658
upperback -4.66606 2.71294 0.263373
thorax 2.4207 1.32168 -1.83539
lowerneck -15.231 -2.63787 -7.42147
upperneck 24.4601 -3.0438 4.83818
head 10.5512 -1.51787 2.57343
rclavicle -5.21189e-015 2.08724e-015
rhumerus -41.8829 5.48057 -91.6746
rradius 31.2747
rwrist 3.96552
rhand -23.1296 -49.1853
rfingers 7.12502
rthumb 3.31798 -79.1393
lclavicle -5.21189e-015 2.08724e-015
lhumerus -45.1317 -0.6891 85.1113
lradius 29.6859
lwrist 10.0293
lhand -31.8252 -19.7311
lfingers 7.12502
lthumb -5.07996 10.188
rfemur -6.47784 5.6375 23.9811
rtibia 39.4393
rfoot -1.61966 7.28722
rtoes -26.6891
lfemur -38.8626 -1.18622 -21.5821
ltibia 35.4794
lfoot -9.8552 1.67966
ltoes 8.82722
126
root 1.82604 17.3951 -30.4029 12.9088 -6.00578 -2.11044
lowerback -12.1682 2.13875 3.85737
upperback -4.81283 2.37995 0.0898656
thorax 1.92505 1.14977 -1.75178
lowerneck -14.918 -2.63894 -7.04713
upperneck 24.7019 -3.12312 4.63619
head 10.5742 -1.54925 2.43104
rclavicle -2.55873e-014 -1.23246e-014
rhumerus -42.8822 5.28826 -91.776
rradius 31.8392
rwrist 3.59407
rhand -22.5367 -48.9071
rfingers 7.12502
rthumb 3.8905 -78.8514
lclavicle -2.55873e-014 -1.23246e-014
lhumerus -45.2721 -1.51274 85.328
lradius 30.2966
lwrist 10.3941
lhand -32.9742 -27.4535
lfingers 7.12502
lthumb -6.18933 2.43606
rfemur -6.93998 4.8333 23.4441
rtibia 41.8237
rfoot -1.28585 7.9716
rtoes -28.0157
lfemur -37.8438 -1.66369 -22.2412
ltibia 35.5109
lfoot -10.3362 1.10929
ltoes 9.41063
127
root 1.8571 17.4053 -30.2065 12.0394 -7.92738 -2.15991
lowerback -11.1993 2.69501 4.29012
upperback -4.8888 3.12084 -0.0482732
thorax 1.39183 1.50316 -2.07502
lowerneck -15.2174 -2.56428 -6.99918
upperneck 25.3911 -3.02166 4.60263
head 10.8792 -1.50478 2.4334
rclavicle 2.02543e-014 2.18663e-014
rhumerus -43.9152 5.73728 -92.1184
rradius 31.7596
rwrist 3.99633
rhand -23.5978 -46.6244
rfingers 7.12502
rthumb 2.86582 -76.5849
lclavicle 2.02543e-014 2.18663e-014
lhumerus -45.6905 -1.67009 85.2847
lradius 30.6417
lwrist 10.2345
lhand -33.2829 -27.4474
lfingers 7.12502
lthumb -6.48737 2.43324
rfemur -7.09679 6.01969 22.5832
rtibia 44.114
rfoot 0.812037 9.30128
rtoes -25.8287
lfemur -35.9345 -1.00553 -22.4811
ltibia 35.4624
lfoot -11.2119 2.39365
ltoes 9.56147
128
root 1.85638 17.4002 -30.1202 12.6747 -7.24434 -1.64259
lowerback -10.7769 2.39131 3.4267
upperback -5.77212 2.84191 -0.104764
thorax 0.188298 1.34525 -1.72436
lowerneck -14.475 -2.58511 -6.96371
upperneck 25.5836 -3.1268 4.61816
head 10.8111 -1.55869 2.42477
rclavicle -3.54085e-015 2.48481e-016
rhumerus -44.9899 5.5266 -92.0799
rradius 32.3933
rwrist 3.14408
rhand -22.3854 -49.7693
rfingers 7.12502
rthumb 4.03663 -79.7108
lclavicle -3.54085e-015 2.48481e-016
lhumerus -46.2322 -2.20091 85.4918
lradius 30.8725
lwrist 10.1483
lhand -33.4264 -27.7624
lfingers 7.12502
lthumb -6.62585 2.1139
rfemur -9.42174 5.31048 21.9182
rtibia 46.7136
rfoot 2.71076 10.0394
rtoes -24.855
lfemur -36.4131 -1.34245 -23.0852
ltibia 35.4363
lfoot -11.3942 1.93105
ltoes 9.3919
129
root 1.85867 17.4008 -29.9806 11.8468 -6.6037 -0.94657
lowerback -10.5824 2.04748 2.81802
upperback -5.42391 2.44879 -0.301958
thorax 0.410633 1.16569 -1.63083
lowerneck -14.32 -2.54674 -6.86623
upperneck 25.4623 -3.14066 4.74534
head 10.7359 -1.54161 2.45152
rclavicle -2.54382e-014 -1.46107e-014
rhumerus -45.079 5.38875 -92.119
rradius 32.243
rwrist 4.10658
rhand -23.5008 -47.1564
rfingers 7.12502
rthumb 2.95943 -77.1156
lclavicle -2.54382e-014 -1.46107e-014
lhumerus -45.7103 -2.63634 85.4869
lradius 31.0085
lwrist 10.1644
lhand -33.3961 -28.3679
lfingers 7.12502
lthumb -6.59658 1.50935
rfemur -9.89947 4.61716 21.2226
rtibia 49.2657
rfoot 4.40087 10.3198
rtoes -20.5883
lfemur -34.9575 -1.73477 -23.8933
ltibia 35.2966
lfoot -11.8971 1.64318
ltoes 9.35293
130
root 1.87534 17.3983 -29.8514 12.1059 -8.03815 -0.823625
lowerback -11.3782 2.46532 2.78382
upperback -5.40698 2.97767 -0.424519
thorax 0.890432 1.43396 -1.6463
lowerneck -13.4873 -2.41536 -6.80839
upperneck 25.0293 -3.01571 4.75348
head 10.4035 -1.48584 2.45885
rclavicle 1.07344e-014 4.07509e-015
rhumerus -45.2953 5.62368 -92.3034
rradius 33.4592
rwrist 2.22128
rhand -22.1607 -50.2788
rfingers 7.12502
rthumb 4.25357 -80.2161
lclavicle 1.07344e-014 4.07509e-015
lhumerus -45.2778 -2.85337 85.4793
lradius 31.1095
lwrist 10.1486
lhand -33.3413 -29.5154
lfingers 7.12502
lthumb -6.54371 0.363506
rfemur -12.1788 5.60218 20.3537
rtibia 52.1862
rfoot 6.5083 10.8181
rtoes -19.799
lfemur -34.6611 -1.12333 -24.2791
ltibia 35.1603
lfoot -12.3305 2.39632
ltoes 9.61647
131
root 1.86918 17.3984 -29.7527 12.1494 -7.20037 -0.0566997
lowerback -11.5755 1.93946 1.79173
upperback -5.09502 2.37845 -0.45841
thorax 1.25775 1.1555 -1.18633
lowerneck -14.4049 -2.39944 -6.77197
upperneck 24.996 -2.90305 4.62773
head 10.5608 -1.43347 2.41777
rclavicle 2.7423e-014 9.44227e-015
rhumerus -44.639 5.95252 -92.1943
rradius 32.5668
rwrist 3.91494
rhand -22.5135 -51.5512
rfingers 7.12502
rthumb 3.91287 -81.495
lclavicle 2.7423e-014 9.44227e-015
lhumerus -43.9184 -3.00108 85.5889
lradius 31.0237
lwrist 10.2389
lhand -33.6162 -29.867
lfingers 7.12502
lthumb -6.80906 0.00355143
rfemur -13.9427 4.71338 19.6428
rtibia 54.8899
rfoot 7.62072 10.5724
rtoes -22.1098
lfemur -34.3145 -1.63419 -25.0823
ltibia 34.9269
lfoot -12.4538 1.95983
ltoes 8.81397
132
root 1.86658 17.3895 -29.6689 12.2916 -7.28956 0.595973
lowerback -10.4787 1.76972 0.978885
upperback -5.72806 2.25326 -0.616472
thorax -0.0234174 1.09347 -0.955675
lowerneck -14.5162 -2.30664 -6.72002
upperneck 25.3797 -2.7919 4.63493
head 10.7154 -1.37876 2.432
rclavicle 1.52195e-014 1.88348e-014
rhumerus -45.3477 5.98691 -92.2861
rradius 32.8461
rwrist 3.78997
rhand -22.4092 -49.7301
rfingers 7.12502
rthumb 4.01367 -79.672
lclavicle 1.52195e-014 1.88348e-014
lhumerus -44.1512 -3.54798 85.7245
lradius 31.2381
lwrist 10.2852
lhand -34.2212 -28.4804
lfingers 7.12502
lthumb -7.39306 1.37038
rfemur -16.0934 4.48461 18.7525
rtibia 57.6551
rfoot 8.41714 10.0307
rtoes -23.0858
lfemur -34.1306 -1.58649 -25.8996
ltibia 34.7644
lfoot -12.485 1.94184
ltoes 7.06268
133
root 1.87622 17.3859 -29.5253 11.7226 -7.48876 1.11956
lowerback -10.3729 1.71662 0.407721
upperback -4.96159 2.23957 -0.692914
thorax 0.697692 1.10203 -0.703866
lowerneck -16.4897 -2.43344 -6.65059
upperneck 25.6873 -2.84773 4.57894
head 11.2223 -1.3822 2.38996
rclavicle -7.18731e-015 2.38542e-015
rhumerus -44.2323 6.14091 -92.0948
rradius 33.5797
rwrist 2.94074
rhand -20.9539 -51.395
rfingers 7.12502
rthumb 5.41888 -81.3057
lclavicle -7.18731e-015 2.38542e-015
lhumerus -42.3952 -3.75159 85.8275
lradius 31.0649
lwrist 10.0695
lhand -34.4568 -27.6348
lfingers 7.12502
lthumb -7.62046 2.20788
rfemur -17.0481 4.35826 18.0301
rtibia 60.0399
rfoot 8.7306 8.56312
rtoes -22.4375
lfemur -32.8504 -1.70477 -26.564
ltibia 34.4942
lfoot -12.899 2.22276
ltoes 7.49698
134
root 1.88002 17.3795 -29.4051 11.4285 -7.34889 1.62577
lowerback -9.39592 1.50915 -0.11401
upperback -5.79404 2.00243 -0.762145
thorax -0.718793 0.989202 -0.550652
lowerneck -14.729 -2.24948 -6.76732
upperneck 25.7977 -2.69875 4.63933
head 10.9073 -1.34171 2.46038
rclavicle -1.38528e-015 -2.17669e-014
rhumerus -46.0906 6.07971 -92.1923
rradius 33.5856
rwrist 4.22424
rhand -22.7464 -48.5414
rfingers 7.12502
rthumb 3.68796 -78.4892
lclavicle -1.38528e-015 -2.17669e-014
lhumerus -43.4348 -3.87414 85.8979
lradius 31.1546
lwrist 9.83757
lhand -34.3497 -27.9208
lfingers 7.12502
lthumb -7.51711 1.92559
rfemur -18.3722 3.91701 17.4515
rtibia 62.3768
rfoot 6.00712 6.93174
rtoes -29.901
lfemur -32.0013 -2.09369 -27.1336
ltibia 34.2754
lfoot -13.3823 2.33747
ltoes 9.47094
135
root 1.88997 17.3762 -29.2813 11.0273 -7.19704 2.21346
lowerback -9.9319 1.33158 -0.54581
upperback -5.2915 1.8114 -0.922904
thorax 0.0860452 0.900612 -0.468961
lowerneck -14.4818 -2.20395 -6.75039
upperneck 25.3278 -2.65119 4.67421
head 10.6807 -1.31335 2.46979
rclavicle -1.09332e-015 4.57205e-015
rhumerus -45.6694 6.01194 -92.0698
rradius 33.7399
rwrist 4.019
rhand -22.7786 -48.7812
rfingers 7.12502
rthumb 3.65693 -78.7296
lclavicle -1.09332e-015 4.57205e-015
lhumerus -42.4453 -4.12681 85.9002
lradius 31.2759
lwrist 9.73241
lhand -34.592 -27.749
lfingers 7.12502
lthumb -7.751 2.0889
rfemur -19.528 3.35048 16.7515
rtibia 64.5206
rfoot 5.2146 5.12764
rtoes -27.8542
lfemur -31.0142 -2.46404 -27.8464
ltibia 34.1059
lfoot -13.8189 2.60407
ltoes 9.14143
136
root 1.89778 17.3682 -29.177 10.9298 -7.69382 2.70803
lowerback -10.1312 1.37245 -1.0144
upperback -5.09747 1.91249 -1.06016
thorax 0.38564 0.956762 -0.329439
lowerneck -14.3862 -2.16958 -6.73289
upperneck 24.9752 -2.59939 4.66075
head 10.5281 -1.28793 2.46356
rclavicle 1.84e-014 6.26172e-015
rhumerus -45.4208 6.11845 -92.1209
rradius 33.3967
rwrist 3.73833
rhand -25.2279 -47.8373
rfingers 7.12502
rthumb 1.29147 -77.8131
lclavicle 1.84e-014 6.26172e-015
lhumerus -41.6338 -4.55747 85.9951
lradius 31.3116
lwrist 9.79495
lhand -34.6938 -26.7931
lfingers 7.12502
lthumb -7.8492 3.04117
rfemur -21.3424 3.3706 15.9755
rtibia 66.6721
rfoot 4.32073 3.41452
rtoes -27.4564
lfemur -30.502 -2.21186 -28.583
ltibia 34.0177
lfoot -14.0233 2.93533
ltoes 7.96998
137
root 1.88753 17.3564 -29.0923 10.9257 -8.06686 2.74979
lowerback -10.4315 1.40285 -1.26863
upperback -4.75319 1.98655 -1.04613
thorax 0.897229 0.994679 -0.150637
lowerneck -14.3841 -2.15017 -6.65692
upperneck 24.4472 -2.57842 4.67127
head 10.3322 -1.26572 2.44903
rclavicle 1.39305e-014 1.2424e-014
rhumerus -44.6842 6.08507 -92.09
rradius 33.4263
rwrist 2.33303
rhand -26.2417 -47.6286
rfingers 7.12502
rthumb 0.312263 -77.6081
lclavicle 1.39305e-014 1.2424e-014
lhumerus -40.3183 -5.01473 86.0116
lradius 31.0402
lwrist 9.8026
lhand -34.0117 -26.7563
lfingers 7.12502
lthumb -7.1909 3.10151
rfemur -23.3367 3.69567 15.9451
rtibia 68.7166
rfoot 3.61366 1.31144
rtoes -26.8688
lfemur -30.2527 -2.0404 -28.681
ltibia 34.0419
lfoot -14.2146 3.19084
ltoes 8.33242
